<!-- Generated by IcoMoon.io -->
<svg version="1.1" xmlns="http://www.w3.org/2000/svg" width="12" height="10" viewBox="0 0 38 32">
<title>Arrow-more</title>
<path d="M21.339 0.52c-0.68 0.694-0.68 1.816 0.005 2.506l7.766 7.849 0.179 0.159c0.686 0.528 1.665 0.473 2.288-0.163 0.34-0.347 0.51-0.798 0.51-1.249 0-0.456-0.17-0.909-0.514-1.257l-7.764-7.849-0.179-0.158c-0.686-0.526-1.667-0.472-2.29 0.163zM1.527 14.242c-0.86 0.109-1.527 0.855-1.527 1.758 0 0.978 0.782 1.771 1.745 1.771h30.683l-11.085 11.202-0.157 0.181c-0.523 0.693-0.471 1.689 0.152 2.325 0.68 0.692 1.785 0.694 2.467 0.005l14.080-14.23 0.155-0.178c0.236-0.312 0.359-0.692 0.359-1.076 0-0.229-0.044-0.458-0.133-0.676-0.27-0.664-0.905-1.096-1.613-1.096l-35.128 0.014z"></path>
</svg>
